<svg xmlns="http://www.w3.org/2000/svg" version="1.1" xmlns:xlink="http://www.w3.org/1999/xlink" xmlns:svgjs="http://svgjs.dev/svgjs" width="1000" height="1000" viewBox="0 0 1000 1000"><rect width="1000" height="1000" fill="#ffffff"></rect><g transform="matrix(0.7,0,0,0.7,149.57575757575756,460.9201719197885)"><svg viewBox="0 0 396 44" data-background-color="#ffffff" preserveAspectRatio="xMidYMid meet" height="111" width="1000" xmlns="http://www.w3.org/2000/svg" xmlns:xlink="http://www.w3.org/1999/xlink"><g id="tight-bounds" transform="matrix(1,0,0,1,0.2400000000000091,0.1301502061541555)"><svg viewBox="0 0 395.52 43.73970008686501" height="43.73970008686501" width="395.52"><g><svg viewBox="0 0 654.4987230775927 72.37959611309167" height="43.73970008686501" width="395.52"><g transform="matrix(1,0,0,1,258.9787230775927,5.379035680038527)"><svg viewBox="0 0 395.52 61.62152475301461" height="61.62152475301461" width="395.52"><g id="textblocktransform"><svg viewBox="0 0 395.52 61.62152475301461" height="61.62152475301461" width="395.52" id="textblock"><g><svg viewBox="0 0 395.52 61.62152475301461" height="61.62152475301461" width="395.52"><g transform="matrix(1,0,0,1,0,0)"><svg width="395.52" viewBox="0.186956524848938 -36.20000076293945 235.2293701171875 36.658695220947266" height="61.62152475301461" data-palette-color="#0063db"><path d="M0.5-2.05L0.5-2.05Q-0.1-3.4 0.45-4.7L0.45-4.7 11.65-33.55Q12.05-34.5 12.9-35.1 13.75-35.7 14.8-35.75L14.8-35.75Q15.9-35.95 16.98-35.38 18.05-34.8 18.6-33.75L18.6-33.75 22.3-24.55 26.65-13.8 30.1-4.8Q30.65-3.45 30.08-2.13 29.5-0.8 28.13-0.25 26.75 0.3 25.4-0.28 24.05-0.85 23.5-2.15L23.5-2.15 20.6-8.75Q15-8.9 9.5-8.65L9.5-8.65 7.05-2.05Q6.45-0.75 5.1-0.18 3.75 0.4 2.4-0.18 1.05-0.75 0.5-2.05L0.5-2.05ZM12.4-15.8L12.4-15.8Q14.3-15.8 17.9-15.8L17.9-15.8 15.25-23 12.4-15.8ZM35.3-5.85L35.3-5.85Q33.7-8.1 33.25-12.35L33.25-12.35Q32.9-15.35 33.05-19.75L33.05-19.75Q33.15-22.15 33.5-27.05L33.5-27.05Q33.8-31.15 33.8-32.4L33.8-32.4Q33.85-33.85 34.87-34.85 35.9-35.85 37.35-35.83 38.8-35.8 39.8-34.77 40.8-33.75 40.77-32.3 40.75-30.85 40.45-26.55L40.45-26.55Q40.1-21.35 40.05-19.55L40.05-19.55Q39.9-15.6 40.17-13.13 40.45-10.65 41-9.85L41-9.85Q42.4-7.85 44.9-7.2 47.4-6.55 49.85-7.35L49.85-7.35Q52.35-8.2 53.75-10.25L53.75-10.25Q56.1-13.65 56.25-20.1L56.25-20.1Q56.3-22.4 56.1-26.15L56.1-26.15Q55.8-31.15 55.75-32.25L55.75-32.25Q55.75-33.7 56.72-34.75 57.7-35.8 59.15-35.83 60.6-35.85 61.65-34.88 62.7-33.9 62.75-32.45L62.75-32.45Q62.75-31.45 63.05-26.55L63.05-26.55Q63.3-22.5 63.2-19.9L63.2-19.9Q63-11.4 59.55-6.35L59.55-6.35Q57.6-3.5 54.35-1.83 51.1-0.15 47.67 0.05 44.25 0.25 40.85-1.25 37.45-2.75 35.3-5.85L35.3-5.85ZM83.34-3.45L83.34-3.45Q83.3-2 82.27-1 81.25 0 79.8-0.03 78.34-0.05 77.34-1.07 76.34-2.1 76.34-3.55L76.34-3.55Q76.39-5.1 76.3-17.7L76.3-17.7Q76.25-24.45 76.5-29L76.5-29Q72.5-29 69.75-28.95L69.75-28.95Q68.3-28.95 67.27-29.95 66.25-30.95 66.22-32.4 66.19-33.85 67.19-34.88 68.19-35.9 69.64-35.95L69.64-35.95Q72.8-36 80-36.02 87.19-36.05 90.34-36.05L90.34-36.05Q91.8-36.05 92.84-35.05 93.89-34.05 93.92-32.63 93.94-31.2 92.94-30.13 91.94-29.05 90.55-29.05L90.55-29.05Q87.39-29.05 83.5-29L83.5-29Q83.25-24.65 83.3-17.75L83.3-17.75Q83.39-5 83.34-3.45L83.34-3.45ZM109.49 0.45L109.49 0.45Q105.79 0.3 102.89-1.2 99.99-2.7 98.22-5.1 96.44-7.5 95.49-10.33 94.54-13.15 94.49-16.2L94.49-16.2Q94.39-19.6 95.14-22.55 95.89-25.5 97.37-28.18 98.84-30.85 101.34-32.93 103.84-35 106.99-35.9L106.99-35.9Q108.24-36.2 109.84-36.2L109.84-36.2 110.89-36.2Q111.69-36.2 112.04-36.15 112.39-36.1 112.79-36.1L112.79-36.1Q114.39-36.05 115.37-35.95 116.34-35.85 117.94-35.3 119.54-34.75 121.09-33.7L121.09-33.7Q124.59-31.3 126.27-27.65 127.94-24 127.89-20.08 127.84-16.15 126.54-12.55L126.54-12.55Q125.59-9.95 124.02-7.63 122.44-5.3 120.29-3.43 118.14-1.55 115.34-0.5 112.54 0.55 109.49 0.45L109.49 0.45ZM109.79-6.4L109.79-6.4Q112.94-6.3 115.72-8.75 118.49-11.2 119.89-14.95L119.89-14.95Q121.44-19.15 120.62-22.55 119.79-25.95 117.19-27.75L117.19-27.75Q116.54-28.2 116.12-28.43 115.69-28.65 115.12-28.85 114.54-29.05 113.94-29.1 113.34-29.15 112.99-29.15 112.64-29.15 112.09-29.2L112.09-29.2Q111.54-29.25 111.29-29.33 111.04-29.4 110.34-29.4L110.34-29.4Q109.69-29.5 108.99-29.25L108.99-29.25Q105.44-27.95 103.42-24.58 101.39-21.2 101.49-16.45L101.49-16.45Q101.59-12.2 103.79-9.35 105.99-6.5 109.79-6.4L109.79-6.4ZM140.34-3.45L140.34-3.45Q140.34-2.05 139.29-1.03 138.24 0 136.81 0 135.39 0 134.37-1.05 133.34-2.1 133.34-3.55L133.34-3.55Q133.39-7.4 133.24-17.57 133.09-27.75 133.19-32.5L133.19-32.5Q133.24-33.95 134.29-34.93 135.34-35.9 136.79-35.88 138.24-35.85 139.22-34.8 140.19-33.75 140.19-32.3L140.19-32.3Q140.09-28.5 140.14-22.7L140.14-22.7Q150.39-23 155.69-23L155.69-23Q155.69-28.5 155.74-32.45L155.74-32.45Q155.79-33.9 156.81-34.9 157.84-35.9 159.29-35.88 160.74-35.85 161.74-34.83 162.74-33.8 162.74-32.35L162.74-32.35Q162.69-29.1 162.69-3.45L162.69-3.45Q162.69-2 161.67-0.98 160.64 0.05 159.19 0.05 157.74 0.05 156.72-0.98 155.69-2 155.69-3.45L155.69-3.45 155.69-16Q150.49-16.05 140.24-15.7L140.24-15.7Q140.34-7.5 140.34-3.45L140.34-3.45ZM171.54-5.85L171.54-5.85Q169.94-8.1 169.49-12.35L169.49-12.35Q169.14-15.35 169.29-19.75L169.29-19.75Q169.39-22.15 169.74-27.05L169.74-27.05Q170.04-31.15 170.04-32.4L170.04-32.4Q170.09-33.85 171.11-34.85 172.14-35.85 173.59-35.83 175.04-35.8 176.04-34.77 177.04-33.75 177.01-32.3 176.99-30.85 176.69-26.55L176.69-26.55Q176.34-21.35 176.29-19.55L176.29-19.55Q176.14-15.6 176.41-13.13 176.69-10.65 177.24-9.85L177.24-9.85Q178.64-7.85 181.14-7.2 183.64-6.55 186.09-7.35L186.09-7.35Q188.59-8.2 189.99-10.25L189.99-10.25Q192.34-13.65 192.49-20.1L192.49-20.1Q192.54-22.4 192.34-26.15L192.34-26.15Q192.04-31.15 191.99-32.25L191.99-32.25Q191.99-33.7 192.96-34.75 193.94-35.8 195.39-35.83 196.84-35.85 197.89-34.88 198.94-33.9 198.99-32.45L198.99-32.45Q198.99-31.45 199.29-26.55L199.29-26.55Q199.54-22.5 199.44-19.9L199.44-19.9Q199.24-11.4 195.79-6.35L195.79-6.35Q193.84-3.5 190.59-1.83 187.34-0.15 183.91 0.05 180.49 0.25 177.09-1.25 173.69-2.75 171.54-5.85L171.54-5.85ZM219.84 0.15L219.84 0.15Q217.53 0.25 214.34 0.1L214.34 0.1Q213.84 0.1 212.39 0.03 210.94-0.05 210.19-0.1L210.19-0.1Q209.99-0.05 209.78-0.05L209.78-0.05Q208.89-0.05 208.19-0.45L208.19-0.45Q207.28-0.9 206.74-1.75 206.19-2.6 206.19-3.65L206.19-3.65Q206.19-4 206.28-4.35L206.28-4.35Q206.28-6.7 206.34-12.7 206.39-18.7 206.28-22.93 206.19-27.15 205.84-31.4L205.84-31.4Q205.74-32.8 206.53-33.88 207.34-34.95 208.64-35.2L208.64-35.2Q209.39-35.7 210.34-35.75L210.34-35.75Q211.03-35.75 212.41-35.8 213.78-35.85 214.34-35.9L214.34-35.9Q217.03-36 218.99-35.85L218.99-35.85Q225.04-35.5 228.64-32.8L228.64-32.8Q231.69-30.5 232.24-27.05L232.24-27.05Q232.69-24.2 231.29-20.8L231.29-20.8Q230.89-19.85 230.24-19.45L230.24-19.45Q233.94-17.5 234.99-13.55L234.99-13.55Q235.89-10.1 234.89-7.6L234.89-7.6Q233.94-5.15 231.09-3.1L231.09-3.1Q226.89-0.15 219.84 0.15L219.84 0.15ZM219.53-6.7L219.53-6.7Q224.54-6.9 227.09-8.75L227.09-8.75Q228.24-9.55 228.41-10.05 228.59-10.55 228.24-11.85L228.24-11.85Q227.79-13.75 223.74-14.2L223.74-14.2Q221.89-14.45 218.84-14.35L218.84-14.35Q214.59-14.3 213.94-14.3L213.94-14.3 213.24-14.4Q213.19-7.3 213.19-6.85L213.19-6.85Q214.14-6.8 214.69-6.75L214.69-6.75Q217.59-6.65 219.53-6.7L219.53-6.7ZM220.34-21.7L220.34-21.7Q224.24-22.05 224.94-23.7L224.94-23.7Q225.54-25.05 225.39-25.85L225.39-25.85Q225.29-26.4 224.59-27L224.59-27Q222.59-28.45 218.59-28.7L218.59-28.7Q216.94-28.8 214.59-28.7L214.59-28.7Q213.99-28.7 212.99-28.65L212.99-28.65Q213.14-25.6 213.24-22L213.24-22Q217.74-21.5 220.34-21.7L220.34-21.7Z" opacity="1" transform="matrix(1,0,0,1,0,0)" fill="#0063db" class="wordmark-text-0" data-fill-palette-color="primary" id="text-0"></path></svg></g></svg></g></svg></g></svg></g><g><svg viewBox="0 0 244.43135999999998 72.37959611309167" height="72.37959611309167" width="244.43135999999998"><g><svg xmlns="http://www.w3.org/2000/svg" xmlns:xlink="http://www.w3.org/1999/xlink" version="1.1" x="0" y="0" viewBox="0.0004891753196716309 40.999752044677734 100.00140380859375 29.611835479736328" enable-background="new 0 0 100 100" xml:space="preserve" width="244.43135999999998" height="72.37959611309167" class="icon-icon-0" data-fill-palette-color="accent" id="icon-0"><path fill="#001f3f" d="M20.784 47.299c8.095-3.358 16.643-5.959 25.455-6.288 2.21-0.053 4.455 0.066 6.587 0.687 4.875 2.379 9.941 4.362 14.933 6.489 3.612 1.195 7.462 0.763 11.198 0.982 2.277 0.105 4.557 0.283 6.809 0.665 1.764 0.309 3.414 1.072 4.924 2.016 2.961 0.869 5.765 2.236 8.334 3.943 0.431 0.287 0.892 0.652 0.975 1.197 0.068 0.955-1.079 1.326-1.273 2.184-0.179 0.516 0.666 0.605 0.551 1.105-0.153 0.682-0.926 0.934-1.496 1.182-3.66 1.242-7.565 1.426-11.389 1.729 0.018-2.199-0.275-4.463-1.248-6.459-1.188-1.992-3.222-3.555-5.553-3.895-3.001-0.471-6.434 0.213-8.463 2.629-2.047 2.371-2.327 5.688-2.145 8.682-12.065 0.504-24.138 1.285-36.205 1.793 0.04-1.446 0.14-2.934-0.268-4.342-0.533-1.975-1.75-3.82-3.544-4.854-2.171-1.3-4.893-1.369-7.272-0.66-1.84 0.56-3.454 1.845-4.342 3.56-1.219 2.176-1.125 4.748-1.215 7.16-3.443 0.036-6.877-0.201-10.303-0.511-1.555-0.623-3.079-1.375-4.454-2.334-0.592-0.623-0.676-1.562-0.967-2.345-0.217-0.979-0.726-2.071-0.14-3.02 1.474-2.678 4.234-4.24 6.691-5.891-0.597-0.057-1.336-0.143-1.798-0.52l0.031-0.236c0.715-0.109 1.46 0.117 2.158-0.094-0.54-0.984-1.399-1.84-2.167-2.681-0.544-0.204-1.178-0.18-1.669-0.538 0.011-0.079 0.035-0.239 0.048-0.318 1.489-0.32 3.024-0.349 4.54-0.456 1.02-0.059 2.096-0.173 3.077 0.18 0.077 0.638-0.857 0.504-0.888 1.02 0.443 0.555 0.954 1.068 1.546 1.464 0.765-0.199 1.493-0.543 2.278-0.687C16.407 49.178 18.573 48.174 20.784 47.299zM42.212 42.482c-2.044 0.259-4.108 0.546-6.097 1.079 0.827 2.244 1.688 4.487 2.618 6.689 7.7-0.151 15.408-0.489 23.1-0.897l-0.054-0.193c-2.805-1.647-5.523-3.45-8.401-4.97-1.625-0.807-3.285-1.678-5.121-1.847C46.245 42.134 44.223 42.377 42.212 42.482zM25.203 47.114c-1.535 0.693-3.185 1.254-4.487 2.353-0.337 0.516 0.393 0.713 0.75 0.792 2.323 0.406 4.693 0.294 7.04 0.322 2.645-0.033 5.292-0.058 7.937-0.147-0.77-2.131-1.669-4.222-2.491-6.335C30.958 44.854 28.056 45.945 25.203 47.114z" data-fill-palette-color="accent"></path><path fill="#001f3f" d="M76.077 53.523c1.86-0.408 3.891-0.066 5.489 0.975 1.875 1.139 3.139 3.203 3.347 5.383 0.206 1.918-0.412 3.9-1.66 5.375-1.653 2-4.423 2.969-6.967 2.482-3.173-0.518-5.781-3.35-5.976-6.568C69.952 57.641 72.602 54.166 76.077 53.523z" data-fill-palette-color="accent"></path><path fill="#001f3f" d="M22.917 56.285c1.713-0.381 3.566-0.17 5.119 0.666 1.875 0.969 3.29 2.793 3.722 4.863 0.408 1.879 0.046 3.916-1.028 5.516-1.202 1.855-3.298 3.072-5.496 3.25-2.219 0.213-4.509-0.662-6.026-2.297-1.667-1.744-2.322-4.357-1.73-6.691C18.108 58.979 20.31 56.883 22.917 56.285z" data-fill-palette-color="accent"></path></svg></g></svg></g></svg></g><defs></defs></svg><rect width="395.52" height="43.73970008686501" fill="none" stroke="none" visibility="hidden"></rect></g></svg></g></svg>